<?xml version="1.0" encoding="UTF-8"?>
<svg xmlns="http://www.w3.org/2000/svg" width="380" height="210" viewBox="0 0 380 210" fill="none">
  <defs>
    <linearGradient id="sgGradient" x1="15%" y1="25%" x2="90%" y2="80%" gradientUnits="objectBoundingBox">
      <stop offset="0%" stop-color="#2196C9"/>
      <stop offset="100%" stop-color="#0A4F82"/>
    </linearGradient>
  </defs>

  <!-- S - positioned slightly lower and to the left (drawn first) -->
  <path 
    d="M142 58 
       C125 45 98 47 87 68 
       C76 89 95 104 122 112 
       C150 120 170 125 170 145 
       C170 165 147 175 120 175 
       C98 175 80 165 70 155" 
    fill="none" 
    stroke="url(#sgGradient)" 
    stroke-width="27" 
    stroke-linecap="round" 
    stroke-linejoin="round"
  />

  <!-- G - positioned higher and overlapping S (drawn second so it sits ON TOP) -->
  <path 
    d="M305 62 
       C305 42 285 32 258 32 
       C228 32 205 53 205 88 
       C205 123 228 147 258 147 
       C288 147 308 130 315 105 
       L315 93 
       L280 93" 
    fill="none" 
    stroke="url(#sgGradient)" 
    stroke-width="27" 
    stroke-linecap="round" 
    stroke-linejoin="round"
  />

  <!-- Very subtle grounding line (optional but gives professional polish) -->
  <line 
    x1="68" y1="185" 
    x2="332" y2="185" 
    stroke="#2196C9" 
    stroke-width="1.8" 
    opacity="0.11"/>
</svg>